M48
INCH
T1C0.0118
T2C0.0433
T3C0.0470
T4C0.0492
T5C0.0787
T6C0.1260
%
G90
G05
T1
X2.3819Y-2.5197
X2.3819Y-2.5787
X2.3819Y-2.6591
X2.5138Y-3.0906
X2.5138Y-3.6811
X2.5138Y-4.2717
X2.5138Y-4.8622
X2.5138Y-5.4528
X2.5591Y-2.9331
X2.7362Y-3.2283
X2.7657Y-2.7461
X2.815Y-2.8937
X2.8937Y-2.9724
X3.0709Y-2.9331
X3.1044Y-3.0906
X3.1044Y-3.6811
X3.1044Y-4.2717
X3.1044Y-4.8622
X3.1044Y-5.4528
X3.1102Y-3.189
X3.2283Y-3.3071
X3.6949Y-3.0906
X3.6949Y-3.6811
X3.6949Y-4.2717
X3.6949Y-4.8622
X3.6949Y-5.4528
X4.2855Y-2.5
X4.2855Y-3.0906
X4.2855Y-3.6811
X4.2855Y-4.2717
X4.2855Y-4.8622
X4.2855Y-5.4528
X4.3504Y-3.8189
X4.4685Y-3.937
X4.5276Y-3.8189
X4.6457Y-3.937
X4.685Y-3.8189
X4.8031Y-4.2717
X4.8622Y-3.937
X4.876Y-3.0906
X4.876Y-3.6811
X4.876Y-4.2717
X4.876Y-5.4528
X4.9409Y-4.4094
X5.2756Y-3.9764
X5.2756Y-4.1929
X5.315Y-3.8189
X5.3346Y-3.0118
X5.3346Y-3.189
X5.3937Y-3.9764
X5.4331Y-3.878
X5.4666Y-2.5
X5.4666Y-3.0906
X5.4666Y-5.4528
X5.4921Y-3.9764
X5.5315Y-3.3268
X5.5906Y-3.2677
X5.6102Y-4.0945
X5.6486Y-3.9381
X5.6693Y-3.9143
X5.7087Y-3.5827
X5.7283Y-3.3268
X5.7677Y-4.2913
X5.7874Y-3.0118
X5.7874Y-3.5827
X5.7874Y-4.0157
X5.8071Y-3.3268
X5.8465Y-3.8386
X5.8465Y-4.1929
X5.8465Y-4.252
X5.8563Y-3.5335
X5.8661Y-3.0906
X5.8832Y-3.9344
X5.9055Y-3.6024
X5.9154Y-3.4744
X5.9281Y-3.9537
X5.9449Y-4.0551
X5.9744Y-3.5335
X5.9793Y-4.001
X5.9843Y-4.3307
X6.0138Y-3.9469
X6.0236Y-3.1496
X6.0236Y-3.1811
X6.0236Y-3.2283
X6.0236Y-3.8583
X6.0571Y-2.5
X6.0571Y-5.4528
X6.1024Y-3.1299
X6.1024Y-3.248
X6.1024Y-3.6614
X6.122Y-3.189
X6.122Y-4.1535
X6.122Y-4.3307
X6.2008Y-4.626
X6.2008Y-4.6654
X6.2402Y-3.6614
X6.2402Y-4.1535
X6.2402Y-4.3307
X6.2402Y-4.4291
X6.2402Y-4.5079
X6.2992Y-3.6054
X6.3583Y-3.6614
X6.3583Y-4.252
X6.3583Y-4.5866
X6.3976Y-4.626
X6.437Y-3.9173
X6.4567Y-4.0551
X6.4764Y-3.6054
X6.5354Y-3.7795
X6.5354Y-4.0551
X6.5551Y-3.6614
X6.5945Y-3.7795
X6.5945Y-4.0551
X6.6477Y-3.0906
X6.6477Y-4.2717
X6.6477Y-5.4528
X7.2382Y-3.0906
X7.2382Y-4.2717
X7.2382Y-4.8622
X7.2382Y-5.4528
X7.2441Y-3.6614
X7.2441Y-5.2165
X7.2736Y-3.9665
X7.3001Y-3.6054
X7.3228Y-5.1378
X7.3425Y-4.0551
X7.3622Y-3.6614
X7.3622Y-5.2165
X7.4016Y-3.6054
X7.4409Y-3.9567
X7.4409Y-4.0551
X7.4409Y-5.1378
X7.5984Y-3.248
X7.8288Y-2.5
X7.8288Y-3.6811
X7.8288Y-4.2717
X7.8288Y-5.4528
X7.8543Y-3.1299
X7.874Y-3.2087
X7.8937Y-3.6024
X7.9724Y-2.126
X7.9724Y-2.2047
X7.9724Y-2.6575
X7.9724Y-2.7362
X7.9921Y-3.563
X8.0315Y-2.9331
X8.0699Y-2.9724
X8.1693Y-2.5394
X8.2274Y-3.1693
X8.3356Y-3.8868
X8.3356Y-4.1929
X8.4193Y-2.5
X8.4193Y-3.6811
X8.4193Y-4.8622
X8.4193Y-5.4528
X8.4252Y-2.6575
X8.4449Y-3.0906
X8.563Y-2.8543
X9.0099Y-2.5
X9.0099Y-3.0906
X9.0099Y-3.6811
X9.0099Y-4.2717
X9.1339Y-3.937
X9.6004Y-2.5
X9.6004Y-3.0906
X9.6004Y-3.6811
X9.6004Y-4.2717
X9.6004Y-4.8622
X9.6004Y-5.4528
T2
X4.9555Y-4.8549
X4.9555Y-4.9549
X5.0555Y-4.8549
X5.0555Y-4.9549
X5.1555Y-4.8549
X5.1555Y-4.9549
X5.2555Y-4.8549
X5.2555Y-4.9549
X5.3555Y-4.8549
X5.3555Y-4.9549
X5.4555Y-4.8549
X5.4555Y-4.9549
X5.5555Y-4.8549
X5.5555Y-4.9549
X5.6555Y-4.8549
X5.6555Y-4.9549
X5.7555Y-4.8549
X5.7555Y-4.9549
X5.8555Y-4.8549
X5.8555Y-4.9549
X5.9555Y-4.8549
X5.9555Y-4.9549
X6.0555Y-4.8549
X6.0555Y-4.9549
X6.1555Y-4.8549
X6.1555Y-4.9549
X6.2555Y-4.8549
X6.2555Y-4.9549
X6.3555Y-4.8549
X6.3555Y-4.9549
X6.4555Y-4.8549
X6.4555Y-4.9549
X6.5555Y-4.8549
X6.5555Y-4.9549
X6.6555Y-4.8549
X6.6555Y-4.9549
X6.7555Y-4.8549
X6.7555Y-4.9549
X6.8555Y-4.8549
X6.8555Y-4.9549
T3
X2.4115Y-5.0394
X2.5591Y-5.0394
X2.7068Y-5.0394
X9.1044Y-5.0394
X9.2521Y-5.0394
X9.3997Y-5.0394
T5
X5.2165Y-2.1654
X5.5512Y-2.1654
X5.9055Y-2.1654
X6.2598Y-2.1654
X6.6142Y-2.1654
T6
X2.126Y-2.0906
X2.126Y-5.7835
X4.7636Y-2.9679
X4.7636Y-4.9049
X7.0474Y-2.9679
X7.0474Y-4.9049
X9.685Y-2.0906
X9.685Y-5.7835
T4
G00X9.3356Y-2.6772
M15
G01X9.1683Y-2.6772
M16
G05
G00X9.3356Y-2.9528
M15
G01X9.1683Y-2.9528
M16
G05
M30
