%TF.GenerationSoftware,KiCad,Pcbnew,9.0.6*%
%TF.CreationDate,2025-12-12T05:38:23-05:00*%
%TF.ProjectId,etch_a_sketch,65746368-5f61-45f7-936b-657463682e6b,rev?*%
%TF.SameCoordinates,Original*%
%TF.FileFunction,Soldermask,Top*%
%TF.FilePolarity,Negative*%
%FSLAX46Y46*%
G04 Gerber Fmt 4.6, Leading zero omitted, Abs format (unit mm)*
G04 Created by KiCad (PCBNEW 9.0.6) date 2025-12-12 05:38:23*
%MOMM*%
%LPD*%
G01*
G04 APERTURE LIST*
G04 Aperture macros list*
%AMRoundRect*
0 Rectangle with rounded corners*
0 $1 Rounding radius*
0 $2 $3 $4 $5 $6 $7 $8 $9 X,Y pos of 4 corners*
0 Add a 4 corners polygon primitive as box body*
4,1,4,$2,$3,$4,$5,$6,$7,$8,$9,$2,$3,0*
0 Add four circle primitives for the rounded corners*
1,1,$1+$1,$2,$3*
1,1,$1+$1,$4,$5*
1,1,$1+$1,$6,$7*
1,1,$1+$1,$8,$9*
0 Add four rect primitives between the rounded corners*
20,1,$1+$1,$2,$3,$4,$5,0*
20,1,$1+$1,$4,$5,$6,$7,0*
20,1,$1+$1,$6,$7,$8,$9,0*
20,1,$1+$1,$8,$9,$2,$3,0*%
G04 Aperture macros list end*
%ADD10R,0.400000X0.350000*%
%ADD11R,0.350000X0.400000*%
%ADD12RoundRect,0.225000X-0.250000X0.225000X-0.250000X-0.225000X0.250000X-0.225000X0.250000X0.225000X0*%
%ADD13RoundRect,0.225000X0.250000X-0.225000X0.250000X0.225000X-0.250000X0.225000X-0.250000X-0.225000X0*%
%ADD14C,5.500000*%
%ADD15C,3.600000*%
%ADD16C,1.701800*%
%ADD17C,3.327400*%
%ADD18RoundRect,0.102000X-1.395000X0.370000X-1.395000X-0.370000X1.395000X-0.370000X1.395000X0.370000X0*%
%ADD19C,1.020000*%
%ADD20RoundRect,0.140000X0.170000X-0.140000X0.170000X0.140000X-0.170000X0.140000X-0.170000X-0.140000X0*%
%ADD21RoundRect,0.225000X-0.225000X-0.250000X0.225000X-0.250000X0.225000X0.250000X-0.225000X0.250000X0*%
%ADD22RoundRect,0.225000X0.225000X0.250000X-0.225000X0.250000X-0.225000X-0.250000X0.225000X-0.250000X0*%
%ADD23R,4.000000X4.000000*%
%ADD24RoundRect,0.098000X0.609000X0.294000X-0.609000X0.294000X-0.609000X-0.294000X0.609000X-0.294000X0*%
%ADD25R,0.457200X1.828800*%
%ADD26R,0.304800X1.193800*%
%ADD27R,1.193800X0.304800*%
%ADD28O,6.000000X1.750000*%
%ADD29RoundRect,0.102000X0.825000X0.825000X-0.825000X0.825000X-0.825000X-0.825000X0.825000X-0.825000X0*%
%ADD30C,1.854000*%
%ADD31RoundRect,0.225000X0.525000X-0.525000X0.525000X0.525000X-0.525000X0.525000X-0.525000X-0.525000X0*%
%ADD32R,0.584200X0.457200*%
G04 APERTURE END LIST*
D10*
%TO.C,U103*%
X150760000Y-80750000D03*
X150760000Y-80250000D03*
X150760000Y-79750000D03*
X150760000Y-79250000D03*
D11*
X150250000Y-79240000D03*
X149750000Y-79240000D03*
D10*
X149240000Y-79250000D03*
X149240000Y-79750000D03*
X149240000Y-80250000D03*
X149240000Y-80750000D03*
D11*
X149750000Y-80760000D03*
X150250000Y-80760000D03*
%TD*%
D12*
%TO.C,C114*%
X147000000Y-83050000D03*
X147000000Y-81500000D03*
%TD*%
D13*
%TO.C,C113*%
X145000000Y-81500000D03*
X145000000Y-83050000D03*
%TD*%
D14*
%TO.C,H108*%
X246000000Y-146900000D03*
D15*
X246000000Y-146900000D03*
%TD*%
D14*
%TO.C,H106*%
X246000000Y-53100000D03*
D15*
X246000000Y-53100000D03*
%TD*%
D14*
%TO.C,H105*%
X54000000Y-53100000D03*
D15*
X54000000Y-53100000D03*
%TD*%
D14*
%TO.C,H107*%
X54000000Y-146900000D03*
D15*
X54000000Y-146900000D03*
%TD*%
D16*
%TO.C,R107*%
X61252400Y-128000000D03*
X65002400Y-128000000D03*
X68752400Y-128000000D03*
D17*
X59802400Y-138000000D03*
X70202400Y-138000000D03*
%TD*%
D16*
%TO.C,R106*%
X231252400Y-128000000D03*
X235002400Y-128000000D03*
X238752400Y-128000000D03*
D17*
X229802400Y-138000000D03*
X240202400Y-138000000D03*
%TD*%
D18*
%TO.C,J101*%
X67035000Y-68810000D03*
X62965000Y-68810000D03*
X67035000Y-67540000D03*
X62965000Y-67540000D03*
X67035000Y-66270000D03*
X62965000Y-66270000D03*
X67035000Y-65000000D03*
X62965000Y-65000000D03*
X67035000Y-63730000D03*
X62965000Y-63730000D03*
X67035000Y-62460000D03*
X62965000Y-62460000D03*
X67035000Y-61190000D03*
X62965000Y-61190000D03*
D19*
X65000000Y-68175000D03*
X65000000Y-61825000D03*
%TD*%
D14*
%TO.C,H104*%
X179005000Y-124585000D03*
D15*
X179005000Y-124585000D03*
%TD*%
D14*
%TO.C,H103*%
X120995000Y-124585000D03*
D15*
X120995000Y-124585000D03*
%TD*%
D14*
%TO.C,H102*%
X179005000Y-75385000D03*
D15*
X179005000Y-75385000D03*
%TD*%
D14*
%TO.C,H101*%
X120995000Y-75385000D03*
D15*
X120995000Y-75385000D03*
%TD*%
D13*
%TO.C,R102*%
X136500000Y-102500000D03*
X136500000Y-104050000D03*
%TD*%
%TO.C,R101*%
X140000000Y-102500000D03*
X140000000Y-104050000D03*
%TD*%
D20*
%TO.C,C109*%
X69500000Y-83020000D03*
X69500000Y-83980000D03*
%TD*%
D12*
%TO.C,R103*%
X73500000Y-84000000D03*
X73500000Y-82450000D03*
%TD*%
%TO.C,C110*%
X150000000Y-107775000D03*
X150000000Y-106225000D03*
%TD*%
D13*
%TO.C,L102*%
X152000000Y-107000000D03*
X152000000Y-108550000D03*
%TD*%
D12*
%TO.C,C107*%
X160000000Y-108550000D03*
X160000000Y-107000000D03*
%TD*%
%TO.C,C104*%
X146500000Y-107775000D03*
X146500000Y-106225000D03*
%TD*%
D13*
%TO.C,C102*%
X155000000Y-95775000D03*
X155000000Y-94225000D03*
%TD*%
%TO.C,C101*%
X158500000Y-95775000D03*
X158500000Y-94225000D03*
%TD*%
D21*
%TO.C,C115*%
X200275000Y-73500000D03*
X198725000Y-73500000D03*
%TD*%
D22*
%TO.C,C118*%
X204450000Y-82500000D03*
X206000000Y-82500000D03*
%TD*%
D23*
%TO.C,TP105*%
X141000000Y-55000000D03*
%TD*%
%TO.C,TP103*%
X159000000Y-55000000D03*
%TD*%
%TO.C,TP102*%
X168000000Y-55000000D03*
%TD*%
%TO.C,TP101*%
X132500000Y-55000000D03*
%TD*%
%TO.C,TP104*%
X150000000Y-55000000D03*
%TD*%
D24*
%TO.C,U102*%
X210245000Y-68450000D03*
X210245000Y-67500000D03*
X210245000Y-66550000D03*
X212755000Y-66550000D03*
X212755000Y-67500000D03*
X212755000Y-68450000D03*
%TD*%
D25*
%TO.C,U104*%
X196725001Y-75848749D03*
X197374999Y-75848749D03*
X198025001Y-75848749D03*
X198674999Y-75848749D03*
X198674999Y-80039749D03*
X198025001Y-80039749D03*
X197374999Y-80039749D03*
X196725001Y-80039749D03*
%TD*%
D13*
%TO.C,R108*%
X207500000Y-67275000D03*
X207500000Y-65725000D03*
%TD*%
D25*
%TO.C,U105*%
X207974999Y-75809000D03*
X207325001Y-75809000D03*
X206674999Y-75809000D03*
X206025001Y-75809000D03*
X206025001Y-80000000D03*
X206674999Y-80000000D03*
X207325001Y-80000000D03*
X207974999Y-80000000D03*
%TD*%
D12*
%TO.C,C112*%
X147000000Y-77950000D03*
X147000000Y-79500000D03*
%TD*%
D22*
%TO.C,C116*%
X199775000Y-82500000D03*
X198225000Y-82500000D03*
%TD*%
D21*
%TO.C,R109*%
X210725000Y-64000000D03*
X212275000Y-64000000D03*
%TD*%
%TO.C,C119*%
X203950000Y-73500000D03*
X205500000Y-73500000D03*
%TD*%
D22*
%TO.C,R112*%
X158275000Y-79000000D03*
X156725000Y-79000000D03*
%TD*%
D12*
%TO.C,R114*%
X194000000Y-73725000D03*
X194000000Y-75275000D03*
%TD*%
D26*
%TO.C,U101*%
X147250000Y-104249999D03*
X147749999Y-104249999D03*
X148250001Y-104249999D03*
X148750000Y-104249999D03*
X149249999Y-104249999D03*
X149750000Y-104249999D03*
X150250000Y-104249999D03*
X150750001Y-104249999D03*
X151250000Y-104249999D03*
X151749999Y-104249999D03*
X152250001Y-104249999D03*
X152750000Y-104249999D03*
D27*
X154249999Y-102750000D03*
X154249999Y-102250001D03*
X154249999Y-101749999D03*
X154249999Y-101250000D03*
X154249999Y-100750001D03*
X154249999Y-100250000D03*
X154249999Y-99750000D03*
X154249999Y-99249999D03*
X154249999Y-98750000D03*
X154249999Y-98250001D03*
X154249999Y-97749999D03*
X154249999Y-97250000D03*
D26*
X152750000Y-95750001D03*
X152250001Y-95750001D03*
X151749999Y-95750001D03*
X151250000Y-95750001D03*
X150750001Y-95750001D03*
X150250000Y-95750001D03*
X149750000Y-95750001D03*
X149249999Y-95750001D03*
X148750000Y-95750001D03*
X148250001Y-95750001D03*
X147749999Y-95750001D03*
X147250000Y-95750001D03*
D27*
X145750001Y-97250000D03*
X145750001Y-97749999D03*
X145750001Y-98250001D03*
X145750001Y-98750000D03*
X145750001Y-99249999D03*
X145750001Y-99750000D03*
X145750001Y-100250000D03*
X145750001Y-100750001D03*
X145750001Y-101250000D03*
X145750001Y-101749999D03*
X145750001Y-102250001D03*
X145750001Y-102750000D03*
%TD*%
D13*
%TO.C,R104*%
X133275000Y-104050000D03*
X133275000Y-102500000D03*
%TD*%
D22*
%TO.C,C103*%
X143775000Y-103000000D03*
X142225000Y-103000000D03*
%TD*%
D12*
%TO.C,R115*%
X210500000Y-73225000D03*
X210500000Y-74775000D03*
%TD*%
D22*
%TO.C,R113*%
X158275000Y-81000000D03*
X156725000Y-81000000D03*
%TD*%
D28*
%TO.C,SW102*%
X235000000Y-75000000D03*
X235000000Y-68000000D03*
%TD*%
D13*
%TO.C,L101*%
X154000000Y-108550000D03*
X154000000Y-107000000D03*
%TD*%
D12*
%TO.C,C108*%
X157000000Y-107000000D03*
X157000000Y-108550000D03*
%TD*%
D13*
%TO.C,C105*%
X145000000Y-93775000D03*
X145000000Y-92225000D03*
%TD*%
D29*
%TO.C,J102*%
X174130000Y-123315000D03*
D30*
X174130000Y-125855000D03*
X171590000Y-123315000D03*
X171590000Y-125855000D03*
X169050000Y-123315000D03*
X169050000Y-125855000D03*
X166510000Y-123315000D03*
X166510000Y-125855000D03*
X163970000Y-123315000D03*
X163970000Y-125855000D03*
X161430000Y-123315000D03*
X161430000Y-125855000D03*
X158890000Y-123315000D03*
X158890000Y-125855000D03*
X156350000Y-123315000D03*
X156350000Y-125855000D03*
X153810000Y-123315000D03*
X153810000Y-125855000D03*
X151270000Y-123315000D03*
X151270000Y-125855000D03*
X148730000Y-123315000D03*
X148730000Y-125855000D03*
X146190000Y-123315000D03*
X146190000Y-125855000D03*
X143650000Y-123315000D03*
X143650000Y-125855000D03*
X141110000Y-123315000D03*
X141110000Y-125855000D03*
X138570000Y-123315000D03*
X138570000Y-125855000D03*
X136030000Y-123315000D03*
X136030000Y-125855000D03*
X133490000Y-123315000D03*
X133490000Y-125855000D03*
X130950000Y-123315000D03*
X130950000Y-125855000D03*
X128410000Y-123315000D03*
X128410000Y-125855000D03*
X125870000Y-123315000D03*
X125870000Y-125855000D03*
%TD*%
D31*
%TO.C,SW101*%
X65000000Y-83850000D03*
X65000000Y-76150000D03*
%TD*%
D22*
%TO.C,C120*%
X213275000Y-78500000D03*
X211725000Y-78500000D03*
%TD*%
D21*
%TO.C,R110*%
X156675000Y-77000000D03*
X158225000Y-77000000D03*
%TD*%
%TO.C,R105*%
X136450000Y-97000000D03*
X138000000Y-97000000D03*
%TD*%
%TO.C,R111*%
X156675000Y-83000000D03*
X158225000Y-83000000D03*
%TD*%
D13*
%TO.C,C111*%
X217500000Y-71050000D03*
X217500000Y-69500000D03*
%TD*%
%TO.C,C106*%
X147000000Y-93775000D03*
X147000000Y-92225000D03*
%TD*%
D32*
%TO.C,D101*%
X139034800Y-108449999D03*
X139034800Y-107550001D03*
X140965200Y-107550001D03*
X140965200Y-108449999D03*
%TD*%
D21*
%TO.C,C117*%
X194225000Y-82500000D03*
X195775000Y-82500000D03*
%TD*%
M02*
